<svg xmlns="http://www.w3.org/2000/svg" width="798.052" height="862.323" viewBox="0 0 798.052 862.323">
  <g id="Corner-Art" transform="translate(312.138 259.358) rotate(9)">
    <path id="Back-path" d="M-1642.967,490.574s163.737,27.532,255.515-111.045c83.151-125.55-118.838-111.282-44.8-197.7,7.651-8.931,40.168-43.534,53.865-54.35C-1232.673,12.406-1317.745.105-1294.51-47.663s89.8,9.067,89.8,9.067l-426.41-9.067Z" transform="translate(1605.238 301.785) rotate(14)" fill="#2dfdcf"/>
    <path id="For-path-shadow" d="M-1642.967,490.574s163.737,27.532,255.515-111.045c83.151-125.55-118.838-111.282-44.8-197.7,7.651-8.931,40.168-43.534,53.865-54.35C-1232.673,12.406-1317.745.105-1294.51-47.663s89.8,9.067,89.8,9.067l-426.41-9.067Z" transform="translate(1545.773 293.868) rotate(14)"/>
    <path id="For-path" d="M-1642.967,490.574s163.737,27.532,255.515-111.045c83.151-125.55-118.838-111.282-44.8-197.7,7.651-8.931,40.168-43.534,53.865-54.35C-1232.673,12.406-1317.745.105-1294.51-47.663s89.8,9.067,89.8,9.067l-426.41-9.067Z" transform="translate(1559.238 295.785) rotate(14)" fill="#d0005d"/>
  </g>
</svg>
